#!OML:ASF X:\für Bonn\!DataBase\2005_08_11_Bastian_Final\c3d\Bastian.ASF
:FULLY-SPECIFIED
:DEGREES
108
root 22.8056 16.2364 -4.91003 534.864 -106.183 -145.869
lowerback 73.079 -7.72531 13.7699
upperback 16.2423 -2.19515 -1.75222
thorax -2.01973 -0.826669 -6.45342
lowerneck -7.02763 -5.29614 -1.51077
upperneck -19.6056 -6.98696 5.64206
head -4.49643 -4.052 2.14777
rclavicle -5.40694e-014 -1.59028e-015
rhumerus 62.248 -13.4277 -51.6039
rradius 17.2259
rwrist -2.32123
rhand -36.8163 -4.84335
rfingers 7.12502
rthumb -9.89746 -34.5907
lclavicle -5.40694e-014 -1.59028e-015
lhumerus -10.9479 -26.6266 81.4939
lradius 54.7667
lwrist 33.6336
lhand -13.5094 -16.431
lfingers 7.12502
lthumb 12.6021 13.1689
rfemur -71.6166 -13.1998 19.9136
rtibia 63.6315
rfoot -12.7702 1.64205
rtoes 5.49361
lfemur -64.2505 -1.90023 -32.8198
ltibia 48.098
lfoot -3.47986 -2.91749
ltoes -15.7432
109
root 22.7837 16.2278 -4.90963 534.954 -106.278 -145.699
lowerback 73.1327 -7.61047 13.6148
upperback 16.2862 -2.16534 -1.7018
thorax -1.9731 -0.817855 -6.34969
lowerneck -7.03281 -5.25166 -1.49788
upperneck -19.7921 -6.94119 5.54531
head -4.55983 -4.03134 2.1215
rclavicle 6.36111e-015 -3.97569e-014
rhumerus 62.3758 -13.5822 -51.5091
rradius 17.2559
rwrist -2.37885
rhand -37.1511 -4.92466
rfingers 7.12502
rthumb -10.2204 -34.6564
lclavicle 6.36111e-015 -3.97569e-014
lhumerus -10.8579 -26.583 81.5609
lradius 54.8937
lwrist 33.6743
lhand -13.4824 -16.3813
lfingers 7.12502
lthumb 12.6282 13.217
rfemur -71.8807 -13.1896 19.8305
rtibia 63.797
rfoot -12.903 1.49832
rtoes 5.35261
lfemur -64.5155 -2.02827 -32.878
ltibia 48.2498
lfoot -3.61391 -2.93374
ltoes -16.0648
110
root 22.7632 16.2202 -4.90961 535.046 -106.379 -145.528
lowerback 73.1761 -7.52 13.4794
upperback 16.3208 -2.14982 -1.68504
thorax -1.93998 -0.810032 -6.28652
lowerneck -7.02272 -5.22358 -1.48119
upperneck -19.9698 -6.91125 5.49179
head -4.62068 -4.02072 2.10815
rclavicle -1.59028e-014 -1.27222e-014
rhumerus 62.4819 -13.7507 -51.4947
rradius 17.307
rwrist -2.38707
rhand -37.4575 -5.01246
rfingers 7.12502
rthumb -10.516 -34.7294
lclavicle -1.59028e-014 -1.27222e-014
lhumerus -10.7963 -26.5545 81.5844
lradius 55.0467
lwrist 33.7545
lhand -13.4097 -16.3012
lfingers 7.12502
lthumb 12.6982 13.2928
rfemur -72.1577 -13.1987 19.7616
rtibia 63.9514
rfoot -13.0007 1.39832
rtoes 5.25365
lfemur -64.7797 -2.14665 -32.9489
ltibia 48.3846
lfoot -3.69951 -2.96659
ltoes -16.3533
111
root 22.7428 16.213 -4.90972 535.315 -106.492 -145.576
lowerback 73.245 -7.44565 13.379
upperback 16.3604 -2.1254 -1.65383
thorax -1.89266 -0.798677 -6.22245
lowerneck -7.03701 -5.17825 -1.43611
upperneck -20.1569 -6.86123 5.41909
head -4.68319 -4.00131 2.08358
rclavicle 4.77083e-014 -4.6118e-014
rhumerus 62.6045 -13.913 -51.4424
rradius 17.3223
rwrist -2.45862
rhand -37.8097 -5.10425
rfingers 7.12502
rthumb -10.8557 -34.8037
lclavicle 4.77083e-014 -4.6118e-014
lhumerus -10.6705 -26.4833 81.6262
lradius 55.1028
lwrist 33.7566
lhand -13.3259 -16.2209
lfingers 7.12502
lthumb 12.779 13.368
rfemur -72.3745 -13.2154 19.7467
rtibia 64.0931
rfoot -13.1255 1.2612
rtoes 5.19845
lfemur -65.0033 -2.26526 -32.9576
ltibia 48.5142
lfoot -3.81555 -3.01365
ltoes -16.6384
112
root 22.7226 16.2079 -4.91006 535.611 -106.591 -145.644
lowerback 73.3068 -7.38157 13.2927
upperback 16.3835 -2.10212 -1.64178
thorax -1.86529 -0.785987 -6.18514
lowerneck -7.00199 -5.14317 -1.44161
upperneck -20.343 -6.81875 5.37524
head -4.74985 -3.98303 2.07758
rclavicle -3.49861e-014 -6.36111e-015
rhumerus 62.714 -14.0579 -51.3959
rradius 17.3054
rwrist -2.55714
rhand -38.076 -5.1223
rfingers 7.12502
rthumb -11.1126 -34.8081
lclavicle -3.49861e-014 -6.36111e-015
lhumerus -10.6181 -26.5185 81.6464
lradius 55.2491
lwrist 33.8703
lhand -13.3647 -16.131
lfingers 7.12502
lthumb 12.7416 13.4602
rfemur -72.5977 -13.2043 19.7297
rtibia 64.2205
rfoot -13.2201 1.11093
rtoes 5.05173
lfemur -65.2344 -2.36998 -32.9599
ltibia 48.6314
lfoot -3.90144 -3.07395
ltoes -16.9113
113
root 22.7025 16.2019 -4.90997 536.008 -106.692 -145.8
lowerback 73.3341 -7.30542 13.2225
upperback 16.4064 -2.0583 -1.61395
thorax -1.83731 -0.766082 -6.14463
lowerneck -6.93039 -5.12145 -1.42058
upperneck -20.5529 -6.79732 5.32187
head -4.8306 -3.9775 2.06652
rclavicle 6.36111e-015 2.54444e-014
rhumerus 62.7567 -14.1966 -51.2903
rradius 17.3307
rwrist -2.67385
rhand -38.3518 -5.18368
rfingers 7.12502
rthumb -11.3786 -34.855
lclavicle 6.36111e-015 2.54444e-014
lhumerus -10.5221 -26.4949 81.7036
lradius 55.3027
lwrist 33.9249
lhand -13.2977 -16.0557
lfingers 7.12502
lthumb 12.8062 13.5315
rfemur -72.8296 -13.2083 19.7565
rtibia 64.3346
rfoot -13.3314 0.971806
rtoes 4.91019
lfemur -65.482 -2.49079 -32.9234
ltibia 48.7458
lfoot -3.98864 -3.09625
ltoes -16.9897
